<svg width="112" height="104" viewBox="0 0 112 104" fill="none" xmlns="http://www.w3.org/2000/svg">
<g id="Frame 1" clip-path="url(#clip0_135_132)">
<path id="Vector (Stroke)" fill-rule="evenodd" clip-rule="evenodd" d="M48.8624 95.1878C24.5779 91.1261 8.18402 68.147 12.2457 43.8624C16.3074 19.5779 39.2865 3.18401 63.571 7.24568C87.8556 11.3073 104.249 34.2865 100.188 58.571C96.1261 82.8556 73.147 99.2494 48.8624 95.1878ZM1.25292 42.0239C-3.82416 72.3795 16.6682 101.103 47.0239 106.181C77.3796 111.258 106.103 90.7653 111.181 60.4096C116.258 30.0539 95.7653 1.32999 65.4096 -3.74709C35.0539 -8.82417 6.33001 11.6682 1.25292 42.0239ZM51.988 76.5001C55.0236 77.0078 57.896 74.9585 58.4037 71.923L61.7131 52.136C62.2208 49.1004 60.1716 46.2281 57.136 45.7203C54.1005 45.2126 51.2281 47.2619 50.7204 50.2974L47.4109 70.0844C46.9032 73.12 48.9525 75.9924 51.988 76.5001ZM54.0298 30.5105C53.5221 33.546 55.5713 36.4184 58.6069 36.9261L58.6564 36.9344C61.6919 37.4421 64.5643 35.3929 65.072 32.3573C65.5797 29.3217 63.5305 26.4494 60.4949 25.9416L60.4455 25.9334C57.4099 25.4257 54.5375 27.4749 54.0298 30.5105Z" fill="white" fill-opacity="0.12"/>
</g>
<defs>
<clipPath id="clip0_135_132">
<rect width="112" height="112" fill="white" transform="translate(0 -5)"/>
</clipPath>
</defs>
</svg>
