<svg width="95" height="20" viewBox="0 0 95 20" fill="none" xmlns="http://www.w3.org/2000/svg">
<g id="logo">
<g id="Vector">
<path d="M94.4 10.0168C94.4 10.9317 94.2769 11.8152 94.0307 12.6673C93.7936 13.5105 93.4562 14.3043 93.0184 15.0488C92.5807 15.7843 92.0518 16.457 91.4317 17.0669C90.8116 17.6769 90.1277 18.2016 89.3799 18.6411C88.6321 19.0716 87.8251 19.4035 86.9587 19.6367C86.0924 19.8789 85.1942 20 84.264 20C83.3339 20 82.4356 19.8789 81.5693 19.6367C80.7121 19.4035 79.9051 19.0716 79.1482 18.6411C78.4004 18.2016 77.7164 17.6769 77.0963 17.0669C76.4762 16.457 75.9427 15.7843 75.4959 15.0488C75.0582 14.3043 74.7162 13.5105 74.47 12.6673C74.2329 11.8152 74.1144 10.9317 74.1144 10.0168C74.1144 9.10189 74.2329 8.21838 74.47 7.36626C74.7162 6.51415 75.0582 5.72033 75.4959 4.98482C75.9427 4.24931 76.4762 3.57659 77.0963 2.96665C77.7164 2.35672 78.4004 1.83648 79.1482 1.40593C79.9051 0.975392 80.7121 0.643515 81.5693 0.410305C82.4356 0.168124 83.3339 0.047034 84.264 0.047034C85.1942 0.047034 86.0924 0.168124 86.9587 0.410305C87.8251 0.643515 88.6321 0.975392 89.3799 1.40593C90.1277 1.83648 90.8116 2.35672 91.4317 2.96665C92.0518 3.57659 92.5807 4.24931 93.0184 4.98482C93.4562 5.72033 93.7936 6.51415 94.0307 7.36626C94.2769 8.21838 94.4 9.10189 94.4 10.0168ZM90.5015 10.0168C90.5015 9.17364 90.3374 8.37983 90.0091 7.63535C89.6808 6.8819 89.234 6.2316 88.6686 5.68445C88.1123 5.12834 87.4512 4.68882 86.6852 4.36592C85.9283 4.04301 85.1212 3.88156 84.264 3.88156C83.3977 3.88156 82.5861 4.04301 81.8292 4.36592C81.0723 4.68882 80.4112 5.12834 79.8458 5.68445C79.2804 6.2316 78.8335 6.8819 78.5052 7.63535C78.177 8.37983 78.0128 9.17364 78.0128 10.0168C78.0128 10.8599 78.177 11.6538 78.5052 12.3982C78.8335 13.1337 79.2804 13.7796 79.8458 14.3357C80.4112 14.8918 81.0723 15.3313 81.8292 15.6542C82.5861 15.9771 83.3977 16.1386 84.264 16.1386C85.1212 16.1386 85.9283 15.9771 86.6852 15.6542C87.4512 15.3313 88.1123 14.8918 88.6686 14.3357C89.234 13.7796 89.6808 13.1337 90.0091 12.3982C90.3374 11.6538 90.5015 10.8599 90.5015 10.0168Z" fill="white"/>
<path d="M15.6854 19.953L0 19.953L8.64817 3.99338L0 3.99338L0 0L15.6854 0L7.0655 15.9596L15.6854 15.9596V19.953Z" fill="white"/>
<path d="M72.3676 13.9699C72.3676 14.7954 72.2074 15.57 71.8871 16.2935C71.5668 17.0171 71.1288 17.6525 70.573 18.1998C70.0266 18.7378 69.386 19.1645 68.6511 19.4799C67.9163 19.7953 67.1297 19.953 66.2913 19.953L56.1593 19.953V0L66.2913 0C67.1297 0 67.9163 0.157694 68.6511 0.473083C69.386 0.788472 70.0266 1.21981 70.573 1.7671C71.1288 2.30512 71.5668 2.9359 71.8871 3.65944C72.2074 4.38297 72.3676 5.15753 72.3676 5.98311C72.3676 6.35415 72.3158 6.73447 72.2122 7.12407C72.1085 7.51367 71.9625 7.88935 71.7741 8.25112C71.5857 8.61289 71.3596 8.94219 71.0958 9.23903C70.832 9.53587 70.54 9.78168 70.2197 9.97648C70.5494 10.1527 70.8462 10.3939 71.1099 10.7C71.3737 10.9969 71.5998 11.3262 71.7882 11.6879C71.9766 12.0497 72.118 12.43 72.2122 12.8289C72.3158 13.2185 72.3676 13.5988 72.3676 13.9699ZM60.2149 15.9596H66.2913C66.5739 15.9596 66.8377 15.9086 67.0826 15.8065C67.3275 15.7045 67.5395 15.5654 67.7185 15.3891C67.9069 15.2036 68.0529 14.9902 68.1566 14.7491C68.2602 14.5079 68.312 14.2481 68.312 13.9699C68.312 13.6916 68.2602 13.4318 68.1566 13.1907C68.0529 12.9495 67.9069 12.7408 67.7185 12.5645C67.5395 12.379 67.3275 12.2352 67.0826 12.1332C66.8377 12.0311 66.5739 11.9801 66.2913 11.9801H60.2149V15.9596ZM60.2149 7.98675L66.2913 7.98675C66.5739 7.98675 66.8377 7.93573 67.0826 7.8337C67.3275 7.73166 67.5395 7.59252 67.7185 7.41627C67.9069 7.23075 68.0529 7.0174 68.1566 6.77622C68.2602 6.52576 68.312 6.26139 68.312 5.98311C68.312 5.70482 68.2602 5.44509 68.1566 5.20391C68.0529 4.96273 67.9069 4.75402 67.7185 4.57777C67.5395 4.39225 67.3275 4.24847 67.0826 4.14643C66.8377 4.0444 66.5739 3.99338 66.2913 3.99338L60.2149 3.99338V7.98675Z" fill="white"/>
<path d="M26.1808 3.99338C25.625 3.99338 25.0975 4.10005 24.5982 4.3134C24.1083 4.51748 23.6796 4.8004 23.3122 5.16217C22.9448 5.52394 22.6528 5.95064 22.4361 6.44228C22.2289 6.92464 22.1252 7.43946 22.1252 7.98675V11.9801L30.5839 11.9801L34.6395 11.9732V19.953H30.5839V15.9596L22.1252 15.9596V19.953H18.0838L18.0838 7.98675C18.0838 6.88289 18.2957 5.8486 18.7197 4.88388C19.1436 3.90989 19.7183 3.06112 20.4436 2.33759C21.1785 1.61405 22.0357 1.04357 23.0155 0.626139C24.0047 0.208713 25.0598 0 26.1808 0L45.9218 0C46.6661 0 47.382 0.0973993 48.0698 0.292198C48.7575 0.477721 49.3981 0.746729 49.9916 1.09922C50.5945 1.44244 51.1409 1.85987 51.6308 2.3515C52.1301 2.83386 52.554 3.37188 52.9025 3.96555C53.2605 4.55922 53.5337 5.19464 53.7221 5.87179C53.92 6.54895 54.0189 7.25394 54.0189 7.98675C54.0189 8.67319 53.9294 9.34107 53.7504 9.9904C53.5808 10.6397 53.3312 11.2566 53.0015 11.841C52.6812 12.4254 52.2855 12.9634 51.8145 13.455C51.3434 13.9467 50.8159 14.3734 50.2318 14.7351L52.4786 19.953H48.1687L46.4023 15.9318L41.3224 15.9596V19.953H37.2669V11.9732L41.3224 11.9801H45.9218C46.4777 11.9801 47.0005 11.8781 47.4904 11.674C47.9803 11.4607 48.4089 11.1731 48.7763 10.8113C49.1437 10.4496 49.431 10.0275 49.6383 9.54514C49.855 9.05351 49.9633 8.53405 49.9633 7.98675C49.9633 7.43946 49.855 6.92464 49.6383 6.44228C49.431 5.95064 49.1437 5.52394 48.7763 5.16217C48.4089 4.8004 47.9803 4.51748 47.4904 4.3134C47.0005 4.10005 46.4777 3.99338 45.9218 3.99338L26.1808 3.99338Z" fill="white"/>
</g>
<g id="Rectangle 15">
<path d="M24.4518 7.98946C24.4518 6.96912 25.2927 6.14197 26.3301 6.14197L45.8644 6.14197C46.9018 6.14197 47.7427 6.96912 47.7427 7.98946C47.7427 9.00981 46.9018 9.83696 45.8644 9.83696L24.4518 9.83696V7.98946Z" fill="url(#paint0_linear_130_6)"/>
</g>
</g>
<defs>
<linearGradient id="paint0_linear_130_6" x1="47.7427" y1="6.2005" x2="27.9078" y2="16.5088" gradientUnits="userSpaceOnUse">
<stop stop-color="#E94309"/>
<stop offset="0.480328" stop-color="#E92A6E"/>
<stop offset="1" stop-color="#A204E8"/>
</linearGradient>
</defs>
</svg>
